# xmcd
#
# Track frame offsets:
#	150
#	18600
#	38436
#	61348
#	77735
#	105805
#	123357
#	143424
#	169192
#	188597
#	213436
#	227549
#	248577
#	266309
#	309358
#
# Disc length: 4389
#
# Revision: 1
# Processed by: cddbd v1.5.1PL0 Copyright (c) Steve Scherf et al.
# Submitted via: ExactAudioCopy v0.90b4
# Normalized: r0:DSETVAR1
#
DISCID=ad11230f
DTITLE=Various Artist - My Favourites Blues vol.4
DYEAR=2001
DGENRE=Blues
TTITLE0=Rob Tognoni - My Acid Is Kicki' In'
TTITLE1=The Smokin' J's - Winter
TTITLE2=The Maniac Bullfrogs - Time
TTITLE3=Don Croissant - Big Time Woman
TTITLE4=Pecwec Bluesgang - Sweet Blue Aneel
TTITLE5=Horserower - Hooked Om You
TTITLE6=Recydywa - Blues For Annie
TTITLE7=Zz Top - Cover Your Rig
TTITLE8=Tony Galla - Worried Mind Blues
TTITLE9=Amor - Louer Down
TTITLE10=Popa Chubby - Fire
TTITLE11=Jay Gordon - Drippin Blues
TTITLE12=Cole Tate Band - The Day After Tomorrow
TTITLE13=Innes Sibin - Don't Keep Me Haneing On
TTITLE14=Johnny Fuzzy Kruz - The Slave
EXTD=
EXTT0=
EXTT1=
EXTT2=
EXTT3=
EXTT4=
EXTT5=
EXTT6=
EXTT7=
EXTT8=
EXTT9=
EXTT10=
EXTT11=
EXTT12=
EXTT13=
EXTT14=
PLAYORDER=
